# xmcd
# 
# Track frame offsets:
#     150
#     20331
#     35244
#     56268
#     74672
#     92030
#     113619
#     127350
# 
# Disc length: 1989
# 
# Revision: 3
# Processed by: cddbd v1.5.2PL0 Copyright (c) Steve Scherf et al.
# Submitted via: fre:ac v1.0.17
# 
DISCID=7107c308
DTITLE=Various Artist - Für Sie (bella Italia)
DYEAR=2007
DGENRE=Italien Pop
TTITLE0=Al Bano Carrisi - Il più grande sogno
TTITLE1=Edoardo De Angelis and Angelo Branduardi - Novalis
TTITLE2=Godo - Non è
TTITLE3=Dolcenera - Piove
TTITLE4=Jalisse - Fiumi di parole
TTITLE5=Appassionante - Caruso
TTITLE6=Al Bano Carrisi - Buono sera Signorina
TTITLE7=Marshall and Alexander - Passione
EXTD=YEAR: 2007
EXTT0=
EXTT1=
EXTT2=
EXTT3=
EXTT4=
EXTT5=
EXTT6=
EXTT7=
PLAYORDER=
